Coordinates
version=1
nRows=24
nColumns=22
inDegrees=yes

Units are S.I. units (second, meters, Newtons, ...)
If the header above contains a line with 'inDegrees', this indicates whether rotational values are in degrees (yes) or radians (no).

endheader
time	pelvis_tilt	pelvis_list	pelvis_rotation	pelvis_tx	pelvis_ty	pelvis_tz	hip_flexion_r	hip_adduction_r	hip_rotation_r	knee_angle_r	ankle_angle_r	subtalar_angle_r	hip_flexion_l	hip_adduction_l	hip_rotation_l	knee_angle_l	ankle_angle_l	subtalar_angle_l	lumbar_extension	lumbar_bending	lumbar_rotation
      1.39000000	    -11.77106993	      0.30995243	      1.03982795	     -1.02746193	      0.87413029	     -0.64554906	     14.42109342	     -6.64501693	      0.71643483	    -17.14679994	     17.95538029	      2.13525146	      9.15328058	      1.32129878	     -8.65513473	    -10.92704878	     16.63243068	      1.80348402	      4.02476662	     -2.93866770	     12.45911674
      1.40000000	    -11.65685623	      0.56718715	      1.26471026	     -1.02628439	      0.87364878	     -0.64788793	     14.87975761	     -7.09501725	      0.84401586	    -18.46470117	     18.32794595	      2.29648945	      8.93852980	      1.78582226	     -8.34479703	    -10.91446346	     16.75492983	      1.61884155	      3.81225122	     -3.23438285	     12.38172773
      1.41000000	    -11.50546768	      0.83300431	      1.49943679	     -1.02508763	      0.87318491	     -0.65028995	     15.34521124	     -7.55386032	      1.01753814	    -19.88132949	     18.67981246	      2.45949732	      8.69162780	      2.26064093	     -8.01587531	    -10.93003319	     16.87870751	      1.43557820	      3.55194368	     -3.53882854	     12.30940035
      1.42000000	    -11.35372675	      1.08926568	      1.72447958	     -1.02386215	      0.87269163	     -0.65271762	     15.86788900	     -7.99693329	      1.25941909	    -21.40925331	     18.94962147	      2.76735351	      8.42616092	      2.72687487	     -7.69769022	    -10.92323816	     17.05826192	      1.09267349	      3.29341313	     -3.82459878	     12.21400534
      1.43000000	    -11.15961280	      1.34542081	      1.95937521	     -1.02260551	      0.87227039	     -0.65519557	     16.40026077	     -8.43732688	      1.52027225	    -23.05176788	     19.12025511	      2.92280706	      8.09745530	      3.19351880	     -7.36697694	    -10.89255369	     17.16902935	      0.93744355	      2.98237154	     -4.10833319	     12.10385947
      1.44000000	    -10.97019146	      1.57948600	      2.18715611	     -1.02135278	      0.87185152	     -0.65769965	     17.00690962	     -8.84300700	      1.86232690	    -24.82126808	     19.15935698	      3.20654168	      7.76344366	      3.63652328	     -7.04206854	    -10.84897412	     17.32768859	      0.65834179	      2.67451470	     -4.36061571	     11.97439691
      1.45000000	    -10.73995741	      1.79215087	      2.43166054	     -1.02008705	      0.87152798	     -0.66026223	     17.63860752	     -9.21803529	      2.23037719	    -26.72636230	     19.09144342	      3.38136245	      7.37952602	      4.05567495	     -6.70303058	    -10.80053922	     17.42985030	      0.51987551	      2.31365053	     -4.58312102	     11.82503591
      1.46000000	    -10.52391658	      1.98008845	      2.66813802	     -1.01881363	      0.87123135	     -0.66283823	     18.38122386	     -9.54700918	      2.67207785	    -28.79622873	     18.83606248	      3.64490877	      6.98553308	      4.44771713	     -6.37692924	    -10.70851252	     17.53113932	      0.32727479	      1.96955839	     -4.77337230	     11.65527698
      1.47000000	    -10.32387884	      2.11578062	      2.90664903	     -1.01755514	      0.87097407	     -0.66544050	     19.23509656	     -9.79879034	      3.17377896	    -31.01797785	     18.35316518	      4.08580769	      6.60371721	      4.78281814	     -6.06447266	    -10.60599285	     17.65913319	      0.04290277	      1.64121258	     -4.89667348	     11.45120407
      1.48000000	    -10.08383403	      2.21854151	      3.15824304	     -1.01624532	      0.87085077	     -0.66805407	     20.14417015	     -9.99591287	      3.66052224	    -33.40460214	     17.70029592	      4.31777571	      6.14875327	      5.07728612	     -5.74634611	    -10.44977280	     17.70781326	     -0.04096774	      1.26651751	     -4.98054984	     11.23358063
      1.49000000	     -9.87984690	      2.26636915	      3.40796350	     -1.01495057	      0.87074203	     -0.67063119	     21.20393986	    -10.10172739	      4.19222446	    -35.95104521	     16.80738869	      4.72225599	      5.73656197	      5.30603746	     -5.46535078	    -10.29600131	     17.79663396	     -0.19264063	      0.93310944	     -5.00325806	     10.98902849
      1.50000000	     -9.64719303	      2.26009218	      3.66930339	     -1.01357014	      0.87076399	     -0.67318955	     22.31345241	    -10.12195570	      4.70313024	    -38.60487721	     15.66868410	      5.04803274	      5.27638454	      5.46856672	     -5.17779039	    -10.11617640	     17.85754345	     -0.27698880	      0.57499465	     -4.96222771	     10.71580717
      1.51000000	     -9.40266822	      2.19896181	      3.94203615	     -1.01215493	      0.87088493	     -0.67571622	     23.49327134	    -10.05430794	      5.19168840	    -41.34922112	     14.31992206	      5.31069860	      4.80033657	      5.56323730	     -4.90049466	     -9.92508443	     17.89294491	     -0.33032103	      0.20232973	     -4.85677892	     10.42486394
      1.52000000	     -9.13758412	      2.08667439	      4.22695272	     -1.01063324	      0.87109794	     -0.67818800	     24.71346884	     -9.90452713	      5.63322440	    -44.14328297	     12.80471053	      5.46344818	      4.29012143	      5.59070075	     -4.63746117	     -9.71558585	     17.92752209	     -0.35766835	     -0.18413790	     -4.69435167	     10.10590094
      1.53000000	     -8.84152534	      1.93214051	      4.52446830	     -1.00899190	      0.87141273	     -0.68059526	     25.94513480	     -9.68337582	      6.01689558	    -46.94678089	     11.17778235	      5.44192901	      3.73759120	      5.55901461	     -4.37113480	     -9.49610790	     17.95067937	     -0.35583425	     -0.59723662	     -4.48606417	      9.76878637
      1.54000000	     -8.52553628	      1.74798567	      4.83630457	     -1.00723288	      0.87179120	     -0.68294942	     27.18373588	     -9.41029002	      6.33643569	    -49.71930238	      9.52595066	      5.20566172	      3.15923739	      5.48322368	     -4.10598755	     -9.27599898	     17.97667739	     -0.33509598	     -1.02580005	     -4.24273988	      9.40960954
      1.55000000	     -8.18482616	      1.53555382	      5.16630355	     -1.00532431	      0.87222829	     -0.68524268	     28.39675971	     -9.09165063	      6.57746041	    -52.41095660	      7.94240869	      4.69311932	      2.54396435	      5.36244944	     -3.81917274	     -9.04815942	     18.00211787	     -0.29425107	     -1.47119259	     -3.96799021	      9.03354791
      1.56000000	     -7.80517907	      1.29266880	      5.52076302	     -1.00324219	      0.87273806	     -0.68749565	     29.53898489	     -8.73452533	      6.72141278	    -54.96852318	      6.51019351	      3.95872194	      1.87923352	      5.19305829	     -3.51405898	     -8.81899873	     18.03141874	     -0.24512769	     -1.94815480	     -3.65454182	      8.62603227
      1.57000000	     -7.40046423	      1.03227195	      5.89479466	     -1.00099140	      0.87328934	     -0.68969991	     30.60853829	     -8.35335211	      6.78233912	    -57.35371543	      5.31338631	      3.13379973	      1.18715999	      4.98803271	     -3.19759385	     -8.60444396	     18.06883743	     -0.20347973	     -2.44237958	     -3.31750667	      8.19643225
      1.58000000	     -6.99806065	      0.75684897	      6.29029564	     -0.99856522	      0.87383109	     -0.69186039	     31.61753014	     -7.95816616	      6.75956773	    -59.53088187	      4.42302138	      2.34727344	      0.48829106	      4.75246729	     -2.84757204	     -8.38815158	     18.11385675	     -0.17358781	     -2.91909736	     -2.96258221	      7.75138226
      1.59000000	     -6.60083908	      0.47269489	      6.69833394	     -0.99597686	      0.87435665	     -0.69396022	     32.55795687	     -7.55213755	      6.66504306	    -61.46664112	      3.86209415	      1.63701738	     -0.19764031	      4.49076847	     -2.49317356	     -8.20063603	     18.17416956	     -0.15698518	     -3.37831834	     -2.59664413	      7.29893093
      1.60000000	     -6.23882150	      0.17447726	      7.12588817	     -0.99324098	      0.87483826	     -0.69602331	     33.45245733	     -7.14287136	      6.49393754	    -63.13154296	      3.59219685	      1.20116894	     -0.83511285	      4.20342824	     -2.11975909	     -8.04007773	     18.20520458	     -0.14035275	     -3.78578103	     -2.21374877	      6.81902055
      1.61000000	     -5.87515985	     -0.11764610	      7.53831203	     -0.99031968	      0.87528827	     -0.69799177	     34.26385385	     -6.73944735	      6.25144737	    -64.51918664	      3.64401552	      0.66607503	     -1.46888119	      3.90611844	     -1.78444649	     -7.90788525	     18.33459763	     -0.13014472	     -4.18499810	     -1.83996002	      6.39152389
      1.62000000	     -5.59300938	     -0.42316087	      7.97272604	     -0.98730003	      0.87562858	     -0.69992273	     35.07729354	     -6.34826020	      5.94415174	    -65.61045531	      3.87346158	      0.54892687	     -1.98758018	      3.59070740	     -1.39980632	     -7.82441859	     18.42076250	     -0.10381125	     -4.48229449	     -1.46102082	      5.93278214
